<?xml version="1.0" standalone="no"?>
<!DOCTYPE svg PUBLIC "-//W3C//DTD SVG 20010904//EN"
 "http://www.w3.org/TR/2001/REC-SVG-20010904/DTD/svg10.dtd">
<svg version="1.0" xmlns="http://www.w3.org/2000/svg"
 width="300.000000pt" height="300.000000pt" viewBox="0 0 300.000000 300.000000"
 preserveAspectRatio="xMidYMid meet">
<metadata>
Created by potrace 1.15, written by Peter Selinger 2001-2017
</metadata>
<g transform="translate(0.000000,300.000000) scale(0.100000,-0.100000)"
fill="#000000" stroke="none">
<path d="M189 2793 c0 -5 -1 -44 -1 -88 0 -44 -4 -84 -8 -90 -4 -5 -3 -15 4
-21 9 -8 12 1 14 38 1 27 7 58 12 69 22 40 112 64 150 39 11 -7 3 -10 -30 -10
-87 0 -120 -47 -120 -169 0 -73 -2 -82 -27 -107 -26 -26 -26 -26 -3 -19 l23 7
-7 -213 c-15 -504 -18 -546 -34 -545 -8 0 -17 -4 -19 -11 -3 -7 3 -10 16 -6
20 5 20 2 14 -325 -6 -303 -5 -335 12 -378 21 -56 76 -111 128 -126 25 -7 34
-15 28 -21 -17 -17 -97 21 -135 63 -19 21 -41 58 -48 82 l-13 43 -5 -95 -5
-95 60 -7 c33 -4 154 -12 270 -18 116 -6 249 -13 298 -16 l87 -6 0 -58 c0 -64
7 -93 21 -84 5 3 9 0 9 -5 0 -6 -5 -11 -11 -11 -8 0 -9 -56 -5 -192 3 -106 3
-184 0 -174 -4 13 -8 15 -13 7 -6 -8 -15 -9 -34 -2 -23 9 -27 8 -27 -7 -1 -13
-4 -11 -15 8 -12 21 -14 22 -15 6 0 -16 -2 -17 -17 -5 -15 11 -16 11 -6 0 16
-19 5 -45 -13 -30 -11 9 -14 7 -14 -9 0 -15 -5 -20 -15 -16 -11 4 -13 2 -9 -9
3 -8 0 -18 -5 -22 -6 -3 -9 -11 -6 -16 4 -5 -3 -6 -17 -1 -13 4 -30 7 -38 6
-8 -1 -45 -2 -82 -3 -38 0 -68 -5 -68 -11 0 -5 15 -10 34 -10 34 0 61 -20 38
-28 -7 -2 -12 -10 -12 -17 0 -7 -10 -15 -22 -18 -21 -6 -21 -7 -5 -25 21 -23
22 -39 2 -22 -12 10 -15 9 -15 -4 0 -13 8 -16 35 -14 l35 2 -27 28 c-16 16
-21 28 -13 28 7 0 19 -8 26 -17 12 -17 16 -16 64 9 34 17 50 22 46 13 -3 -8
-1 -17 3 -20 5 -3 7 -13 4 -24 -4 -17 3 -19 102 -20 93 -2 107 0 102 13 -4 9
-2 18 3 21 6 4 10 -3 10 -14 0 -16 6 -21 25 -21 21 0 24 4 20 28 -2 15 -9 149
-15 297 -6 149 -12 310 -15 360 -5 85 -4 89 12 72 15 -15 19 -48 25 -240 5
-122 11 -287 16 -367 l7 -145 164 -3 c121 -2 167 1 179 10 12 10 14 10 8 1 -4
-8 -1 -13 9 -13 10 0 14 5 9 12 -6 10 -4 10 7 1 7 -7 35 -13 61 -13 45 0 48 2
48 26 0 14 4 23 9 20 5 -3 7 -15 4 -26 -5 -19 0 -20 116 -20 90 0 121 3 121
13 0 8 3 8 8 1 4 -5 36 -10 72 -10 56 1 65 3 64 19 -1 11 4 16 15 15 12 -2 15
3 13 21 -3 17 0 22 10 19 7 -3 57 -3 112 1 75 5 102 3 115 -7 14 -12 14 -13
-6 -9 -18 4 -23 1 -23 -14 0 -13 -12 -25 -32 -34 -30 -13 -14 -14 166 -15
l199 0 -6 63 c-3 36 -1 54 3 42 5 -11 9 -39 9 -62 1 -24 6 -43 11 -43 14 0 13
37 -10 270 -11 113 -22 234 -24 270 -2 36 -7 89 -11 118 -7 49 -6 52 14 52 28
0 43 -36 48 -120 2 -36 15 -181 28 -322 14 -142 25 -260 25 -263 0 -6 95 -7
102 0 2 3 3 18 0 34 -3 22 -8 28 -22 24 -14 -4 -19 0 -17 16 1 12 7 21 15 21
7 0 10 -4 7 -10 -3 -5 1 -10 9 -10 9 0 16 4 16 9 0 4 23 11 51 14 29 4 54 8
56 11 3 3 -5 15 -16 28 l-22 23 -6 -23 c-6 -25 -23 -30 -23 -6 0 12 -6 15 -25
10 -19 -5 -25 -2 -25 9 0 12 9 14 43 10 23 -3 36 -2 29 1 -6 3 -9 10 -6 16 4
7 14 2 24 -12 13 -18 21 -20 36 -12 21 11 44 -4 36 -26 -2 -7 0 -12 5 -11 31
5 41 -3 41 -33 -1 -69 2 -78 17 -72 10 4 13 15 10 36 -7 40 17 33 27 -8 l7
-29 -3 32 c-2 22 2 34 13 36 9 3 -3 5 -27 6 -25 1 -41 5 -37 11 3 5 1 19 -5
30 -10 19 -8 20 57 22 37 1 85 2 106 2 35 -1 37 1 37 29 l0 30 -72 -7 c-83 -8
-137 -15 -155 -21 -24 -8 -13 12 12 23 14 6 25 16 25 22 0 5 7 10 15 10 9 0
33 11 55 25 22 14 42 25 46 25 3 0 13 7 21 16 9 8 24 13 34 11 21 -6 25 13 7
31 -9 9 -9 12 0 12 8 0 12 20 12 63 -1 55 -2 60 -15 44 -7 -11 -11 -26 -8 -35
6 -15 4 -15 -14 1 -11 10 -25 17 -31 15 -17 -5 -70 34 -77 57 -16 50 -31 180
-22 186 5 4 7 24 4 45 -16 124 -143 987 -153 1044 -7 42 -23 152 -29 203 -7
51 -25 67 -95 82 -19 4 -134 41 -255 81 -121 41 -226 72 -233 69 -8 -3 -10 0
-6 7 5 7 2 9 -9 5 -9 -3 -17 -2 -19 3 -2 5 -14 11 -28 12 -14 2 -28 7 -31 12
-4 5 -20 9 -37 10 -17 0 -28 5 -25 10 3 4 -5 5 -17 1 -17 -5 -21 -4 -15 6 6 9
2 11 -13 7 -12 -4 -22 -2 -22 4 0 5 -10 6 -21 3 -16 -5 -19 -4 -14 6 6 9 2 11
-13 7 -12 -4 -20 -3 -17 2 6 10 -43 23 -57 14 -7 -5 -8 -2 -3 6 6 10 3 12 -13
8 -14 -4 -20 -2 -16 4 5 7 -2 9 -20 4 -20 -5 -26 -3 -21 5 5 8 1 9 -15 4 -17
-5 -21 -4 -15 6 6 9 3 11 -8 6 -10 -4 -17 -2 -17 4 0 6 -9 9 -20 6 -11 -3 -18
-2 -15 3 7 11 -40 21 -61 13 -13 -5 -15 -3 -9 7 6 10 4 12 -8 7 -10 -3 -17 -2
-17 4 0 6 -9 8 -21 4 -13 -4 -19 -3 -16 2 8 13 -66 35 -89 26 -12 -5 -15 -3
-9 6 6 10 2 11 -15 6 -17 -5 -21 -4 -15 6 6 9 2 11 -13 7 -12 -4 -20 -3 -17 2
7 11 -40 21 -61 13 -12 -4 -15 -3 -10 6 6 9 0 10 -21 6 -18 -4 -23 -3 -15 3 9
6 1 12 -28 21 -22 6 -45 9 -50 6 -5 -3 -21 -3 -35 1 -21 5 -24 9 -13 16 9 7 5
8 -14 4 -14 -3 -37 -2 -50 3 -14 6 -17 10 -8 11 19 2 -18 19 -40 19 -9 0 -8
-4 5 -9 33 -14 -6 -10 -45 5 -19 7 -28 14 -20 15 9 1 5 5 -9 11 -14 5 -31 7
-39 4 -21 -8 -235 57 -220 67 8 5 4 7 -12 3 -14 -3 -67 8 -120 24 -53 16 -86
30 -75 32 11 2 -24 18 -81 37 -103 33 -123 37 -125 25z m447 -560 c23 -23 58
-105 74 -170 6 -29 15 -53 19 -53 4 0 13 26 19 58 34 157 90 176 151 50 26
-53 83 -228 77 -235 -1 -1 -11 0 -23 3 -15 4 -22 16 -26 42 -10 75 -49 199
-71 227 -20 24 -26 27 -39 17 -17 -14 -47 -125 -47 -174 0 -60 -8 -75 -39 -70
-27 4 -28 7 -45 100 -17 96 -46 180 -69 194 -42 26 -84 -115 -102 -338 -7 -80
-7 -81 -32 -76 -25 5 -26 5 -19 81 8 100 40 229 71 291 35 68 68 86 101 53z
m780 -147 c27 -8 164 -45 304 -81 140 -36 260 -71 267 -78 12 -13 59 -425 49
-435 -4 -3 -84 9 -179 27 -159 30 -205 38 -389 71 -37 7 -72 18 -78 25 -11 13
-43 462 -34 476 6 11 1 12 60 -5z m-826 -491 c91 -14 221 -34 290 -45 69 -11
170 -28 225 -36 55 -9 105 -21 111 -26 12 -9 20 -83 29 -273 3 -60 8 -144 11
-186 6 -73 5 -76 -17 -82 -12 -3 -95 0 -183 8 -89 8 -197 17 -241 20 -395 29
-431 33 -450 52 -12 11 -15 68 -15 304 0 189 4 288 10 284 6 -3 10 -1 10 5 0
7 10 9 28 6 15 -3 101 -17 192 -31z m2060 -385 c0 -21 -23 -58 -35 -54 -21 8
-36 -23 -33 -68 3 -38 6 -43 28 -46 18 -2 29 -12 38 -34 6 -17 9 -34 7 -38 -3
-4 -27 4 -55 17 -28 13 -55 21 -60 18 -6 -3 -10 -2 -10 2 0 5 -23 17 -50 27
-28 10 -52 21 -53 25 -2 3 2 17 9 31 l14 25 0 -27 c0 -18 5 -28 15 -28 9 0 15
10 16 28 1 27 1 27 11 -5 18 -54 38 -42 38 21 0 59 -20 91 -21 34 l0 -33 -16
33 c-19 37 -40 42 -45 10 -3 -22 -3 -21 -15 4 l-12 26 72 12 c40 6 88 15 107
19 48 12 50 12 50 1z m-1945 -400 c99 -5 216 -12 260 -15 44 -2 186 -9 315
-15 249 -12 303 -17 296 -28 -5 -8 -68 -8 -229 2 -117 7 -118 7 -105 -13 8
-13 16 -17 22 -11 6 6 14 10 18 10 4 0 -1 -9 -12 -20 -24 -24 -30 -25 -30 -6
0 8 -4 18 -10 21 -6 4 -7 -2 -1 -17 5 -13 5 -31 1 -39 -5 -9 -4 -21 2 -29 8
-12 9 -11 4 4 -6 16 -4 17 10 6 13 -12 17 -11 25 1 5 9 9 10 9 2 0 -6 -5 -15
-10 -18 -6 -4 -7 -11 -4 -17 4 -7 2 -8 -4 -4 -7 4 -12 5 -12 2 0 -2 -3 -12 -7
-22 -4 -12 -3 -15 5 -10 7 4 12 1 12 -9 0 -11 -5 -15 -15 -11 -8 3 -19 -3 -25
-14 -12 -22 -1 -33 20 -19 13 7 13 9 1 9 -8 0 -12 2 -9 5 3 3 12 3 21 -1 15
-5 14 -8 -6 -24 -16 -13 -26 -15 -35 -8 -9 8 -11 7 -6 -7 5 -11 3 -16 -3 -12
-14 9 -9 -31 7 -46 10 -10 12 -9 7 4 -3 9 3 23 12 31 17 14 18 13 17 -12 -2
-45 -22 -55 -52 -25 -14 14 -28 24 -30 22 -7 -7 7 -37 17 -37 5 0 9 -6 9 -14
0 -7 7 -19 15 -26 21 -18 11 -24 -14 -10 -12 6 -19 15 -16 19 3 5 -2 11 -10
15 -24 9 -18 -20 8 -37 12 -8 19 -18 16 -21 -3 -3 -18 3 -33 15 -15 12 -30 18
-33 15 -4 -3 2 -12 12 -19 10 -8 16 -19 14 -26 -3 -8 -14 -3 -32 15 -15 14
-27 23 -27 18 0 -14 53 -69 70 -73 8 -2 24 -6 35 -9 16 -4 18 -2 8 9 -15 16
-17 49 -3 49 6 0 10 -6 10 -12 0 -7 3 -22 6 -34 4 -16 -3 -24 -30 -39 -36 -20
-57 -15 -38 8 9 10 5 13 -21 13 -18 -1 -36 -5 -40 -11 -6 -6 -10 -6 -14 3 -2
6 -9 12 -14 12 -6 0 -7 -5 -3 -11 4 -7 -1 -10 -12 -7 -25 4 -32 60 -36 293
l-3 180 108 -1 c60 -1 103 2 97 6 -7 4 -46 8 -88 9 -166 4 -269 9 -317 15 -58
7 -205 17 -285 20 -143 5 -160 7 -160 17 0 8 24 10 83 5 45 -3 163 -10 262
-16z m2115 -45 c0 -9 -11 -27 -25 -41 -25 -25 -29 -25 -123 -20 -53 3 -171 8
-262 12 -539 18 -810 31 -817 38 -5 5 46 6 112 2 137 -7 518 -23 840 -35 214
-8 221 -8 243 12 12 11 22 26 22 34 0 7 2 13 5 13 3 0 5 -7 5 -15z m-655 -51
l174 -7 7 -31 c4 -17 6 -43 5 -58 -1 -16 3 -28 9 -28 5 0 7 -7 4 -15 -3 -8 2
-93 11 -190 10 -97 14 -179 11 -182 -3 -4 -6 8 -6 25 0 17 -4 34 -10 37 -5 3
-10 -1 -10 -9 0 -9 -5 -15 -12 -13 -6 1 -17 -8 -23 -21 -19 -35 -22 -36 -55
-12 l-32 23 -41 -41 c-28 -26 -56 -42 -82 -47 -22 -5 -44 -9 -50 -10 -5 -1
-37 -5 -70 -9 -33 -4 -74 -9 -92 -11 -18 -3 -35 0 -38 6 -4 5 -15 7 -26 4 -13
-4 -19 -2 -19 8 0 9 -6 17 -12 19 -15 5 -30 -8 -47 -40 -15 -29 -35 -28 -55 3
-9 14 -12 25 -6 25 5 0 9 5 8 11 -2 6 2 13 8 15 6 3 15 -13 21 -33 l10 -38 2
43 c1 34 5 44 24 52 21 8 21 9 -6 9 -15 1 -26 6 -25 12 2 6 -3 14 -10 16 -9 4
-11 -2 -6 -21 3 -14 2 -27 -2 -27 -56 -8 -64 -7 -58 4 16 29 49 57 66 57 10 0
18 2 18 4 0 2 3 12 6 20 5 14 2 15 -21 6 -36 -14 -36 -13 -29 16 5 20 2 26
-14 31 -18 4 -20 11 -16 46 3 22 7 45 10 49 8 12 -11 9 -24 -4 -18 -18 -14 3
4 23 9 10 14 24 11 31 -4 8 -8 5 -12 -9 -8 -24 -35 -40 -35 -19 0 7 9 21 19
30 11 10 19 30 19 44 0 15 1 32 2 37 8 32 -4 35 -20 5 -11 -21 -19 -28 -20
-18 0 9 5 20 10 23 6 3 10 16 9 28 0 12 -3 16 -6 10 -2 -7 -11 -13 -19 -13
-13 0 -13 3 0 22 9 12 16 29 16 38 -1 8 -8 2 -16 -13 -9 -16 -18 -26 -21 -23
-3 2 5 19 18 37 12 17 22 45 22 62 l0 30 174 -7 c95 -3 252 -9 348 -12z m519
-46 c9 -22 10 -37 3 -45 -5 -7 -6 -13 -3 -13 4 0 2 -9 -4 -19 -7 -14 -6 -21 3
-24 6 -3 3 -6 -8 -6 -11 -1 -32 14 -48 34 -33 42 -52 44 -61 9 -5 -18 -12 -24
-22 -20 -16 6 -44 -15 -44 -33 0 -5 -5 -13 -10 -16 -7 -4 -9 14 -7 55 2 33 0
63 -5 66 -4 3 -8 14 -8 25 0 18 8 19 100 19 l100 0 14 -32z"/>
<path d="M1445 2011 c-20 -23 -19 -51 2 -81 16 -22 16 -23 -2 -16 -11 4 -16 4
-13 0 4 -4 1 -16 -7 -28 -32 -44 -4 -121 55 -151 32 -17 112 -17 127 0 5 4 2
5 -4 1 -18 -10 -16 9 2 24 8 6 23 9 34 5 10 -3 22 -1 26 5 3 5 11 10 16 10 6
0 7 -5 3 -12 -4 -7 -3 -8 4 -4 14 9 84 -3 77 -13 -2 -4 6 -7 18 -7 12 1 22 -4
22 -11 0 -6 4 -15 9 -20 5 -5 6 -2 1 6 -5 9 -3 12 6 9 8 -3 13 -13 13 -22 -1
-10 0 -15 3 -12 3 3 16 -8 30 -24 31 -38 58 -46 88 -26 31 20 33 68 6 110 -11
17 -18 33 -15 37 2 5 -2 24 -10 44 -12 29 -20 35 -45 35 -20 0 -32 6 -36 19
-8 25 -37 36 -50 18 -12 -16 -60 -16 -77 1 -9 9 -9 12 2 12 7 0 11 2 9 5 -3 2
-19 1 -37 -4 -44 -13 -70 -4 -74 26 -2 16 -12 29 -25 34 -13 5 -22 5 -21 1 1
-4 -2 -15 -7 -26 -7 -16 -11 -12 -29 25 -18 38 -26 44 -53 45 -19 1 -38 -5
-48 -15z m85 -37 c15 -38 13 -40 -15 -14 -18 17 -28 21 -36 13 -8 -8 -2 -19
22 -40 60 -51 79 -76 79 -99 0 -13 5 -24 10 -24 13 0 13 45 0 90 -8 27 -7 38
5 49 13 14 15 12 15 -16 0 -25 5 -32 23 -35 18 -2 23 -10 25 -40 4 -42 17 -50
25 -17 4 15 11 20 21 16 10 -4 16 -1 16 9 0 11 -6 13 -20 9 -24 -8 -27 13 -4
22 23 8 44 -23 44 -63 0 -18 5 -36 11 -39 16 -11 19 -1 10 33 -13 44 9 62 39
32 11 -11 25 -18 30 -15 6 4 10 -5 10 -18 0 -14 3 -39 6 -56 5 -24 9 -29 20
-20 15 12 54 -4 54 -23 0 -7 -4 -7 -14 1 -18 15 -30 -1 -21 -28 7 -25 34 -35
51 -20 23 19 16 39 -32 86 -45 45 -54 75 -23 81 18 3 49 -23 49 -40 0 -6 -9
-3 -20 7 -39 35 -32 5 9 -40 29 -31 41 -53 41 -74 0 -54 -64 -60 -91 -9 -6 13
-19 32 -29 43 -9 11 -17 31 -18 45 -1 28 -21 70 -34 70 -4 0 -5 -19 -2 -41 7
-40 6 -41 -17 -34 -13 4 -29 11 -35 16 -6 5 -18 7 -27 3 -8 -3 -18 0 -22 6 -5
8 -13 6 -27 -7 -16 -14 -20 -15 -18 -3 6 37 -1 90 -11 90 -8 0 -10 -15 -7 -45
4 -35 2 -45 -9 -45 -8 0 -24 -12 -36 -26 -17 -22 -26 -25 -55 -20 -64 10 -108
78 -82 125 15 28 46 26 77 -5 29 -29 23 -46 -7 -19 -42 38 -70 -15 -29 -56 13
-13 30 -19 47 -17 23 3 27 8 30 39 3 33 -2 41 -48 80 -72 60 -80 109 -19 109
22 0 32 -6 39 -26z"/>
<path d="M1460 1670 c0 -30 4 -40 16 -40 8 0 12 5 9 10 -3 6 -1 10 4 10 6 0
11 -7 11 -15 0 -8 10 -16 23 -17 40 -3 52 -5 71 -13 22 -10 40 13 24 32 -7 9
-7 13 1 13 6 0 14 -13 17 -29 4 -20 13 -30 30 -34 13 -2 21 0 18 4 -3 5 -1 9
5 9 5 0 11 -4 13 -8 6 -15 58 -24 58 -10 0 9 3 8 10 -2 9 -13 11 -13 20 0 8
13 10 12 10 -4 0 -14 6 -17 25 -14 14 3 25 1 25 -5 0 -5 11 -7 25 -5 14 3 25
1 25 -3 0 -22 19 -6 23 19 l4 27 2 -27 c2 -38 18 -35 24 5 2 17 4 33 3 34 -1
1 -18 4 -38 6 -20 2 -43 9 -51 16 -12 9 -18 8 -31 -4 -9 -9 -17 -24 -17 -33
-1 -9 -4 -4 -8 11 -4 22 -15 32 -44 42 -33 11 -40 11 -54 -4 -15 -15 -16 -14
-11 6 5 20 4 21 -13 12 -11 -5 -19 -21 -20 -37 l-1 -27 -7 25 c-4 14 -3 28 3
32 15 10 7 14 -41 22 -51 7 -66 -9 -33 -36 12 -10 17 -18 12 -18 -6 0 -13 4
-16 9 -3 5 -16 7 -29 4 -18 -4 -19 -3 -7 6 13 10 13 12 0 21 -10 6 -11 10 -2
10 6 0 12 5 12 11 0 6 -10 9 -22 8 -13 -2 -27 -1 -33 2 -38 22 -45 19 -45 -21z"/>
<path d="M763 1535 c-80 -18 -130 -57 -160 -122 -78 -170 50 -398 236 -420 58
-7 121 18 168 67 39 40 49 66 33 85 -18 22 -25 19 -54 -26 -48 -72 -141 -90
-233 -44 -65 33 -80 50 -63 70 7 8 10 22 6 30 -8 22 7 18 22 -5 14 -23 21 -24
59 -8 28 12 38 15 61 17 7 0 12 14 12 32 l0 30 23 -27 c25 -29 47 -26 47 7 0
18 1 18 21 -2 13 -13 30 -19 47 -17 23 3 27 8 30 41 3 34 1 37 -22 37 -16 0
-26 -6 -26 -15 0 -8 5 -15 11 -15 5 0 7 -5 3 -12 -5 -8 -11 -6 -20 7 -20 27
-1 57 31 49 18 -4 25 -2 25 9 0 35 -62 36 -89 1 -20 -26 -21 -26 -21 -5 0 30
-24 22 -28 -9 l-4 -24 -18 24 c-12 16 -23 21 -35 16 -15 -5 -17 -16 -13 -61 3
-30 1 -55 -4 -55 -4 0 -8 25 -8 55 0 56 -8 67 -30 40 -8 -10 -17 -12 -23 -6
-13 13 0 31 24 31 11 0 19 7 19 18 0 11 3 13 8 5 5 -8 27 -11 67 -7 69 5 97
12 107 28 6 8 8 7 8 -1 0 -7 4 -13 9 -13 4 0 8 17 7 38 l-1 37 -78 -1 c-53 -1
-82 -5 -87 -14 -4 -7 -13 -9 -20 -5 -6 4 -27 4 -46 1 -31 -6 -34 -10 -35 -44
l-2 -37 -6 33 c-3 18 -10 31 -16 30 -5 -2 -9 -7 -7 -12 2 -5 -3 -4 -10 2 -8 6
-24 9 -36 5 -19 -5 -22 -12 -22 -54 0 -53 10 -60 47 -34 12 8 28 12 36 9 13
-5 13 -9 0 -35 -17 -33 -28 -38 -20 -9 5 21 -8 26 -31 11 -10 -6 -12 -22 -9
-57 l6 -49 -20 43 c-47 99 -33 200 35 268 49 50 96 62 171 47 57 -12 72 -9 29
7 -16 5 -36 14 -44 18 -9 5 -38 4 -67 -3z"/>
<path d="M2066 484 c-9 -22 -7 -26 6 -18 6 4 8 3 5 -4 -8 -11 -25 -11 -43 1
-8 5 -9 -6 -2 -39 12 -55 7 -63 -22 -34 -12 12 -25 18 -29 13 -3 -6 -15 -5
-28 2 -13 7 -20 15 -16 19 12 11 -20 26 -36 16 -10 -5 -21 -2 -33 12 -10 12
-18 16 -18 9 0 -7 -5 -9 -10 -6 -14 9 -50 -4 -50 -17 0 -6 6 -6 15 2 13 11 14
10 9 -4 -7 -19 -9 -19 -35 -6 -10 6 -19 17 -19 24 0 8 -6 18 -12 24 -10 8 -13
-1 -13 -41 0 -29 4 -58 9 -66 5 -7 9 -28 10 -45 1 -17 4 -36 8 -41 4 -6 5 -23
4 -38 -3 -25 -2 -26 13 -13 19 17 61 24 79 12 7 -4 18 -3 25 2 7 5 26 11 43
14 26 3 31 1 27 -11 -4 -14 -3 -14 9 0 7 9 30 18 50 22 32 5 36 3 31 -11 -6
-15 -5 -15 10 -3 9 7 14 18 10 24 -3 6 -1 7 5 3 7 -4 12 -1 12 6 0 9 3 9 10
-2 9 -13 10 -13 10 0 0 13 2 13 9 1 5 -8 16 -11 24 -8 12 4 15 1 11 -11 -5
-14 -3 -14 10 2 12 15 24 18 60 13 32 -5 47 -2 56 8 9 11 9 15 1 15 -6 0 -11
-4 -11 -10 0 -5 -5 -10 -10 -10 -6 0 -10 6 -9 13 3 27 -2 36 -23 39 -20 3 -22
8 -20 37 3 28 1 33 -13 27 -13 -4 -15 -2 -10 13 3 11 0 23 -6 27 -7 4 -9 3 -6
-2 3 -6 2 -16 -4 -24 -6 -11 -9 -6 -9 17 0 17 -4 35 -10 38 -5 3 -10 0 -10 -8
0 -8 -8 -21 -17 -28 -12 -10 -15 -10 -9 -1 10 16 -1 49 -19 55 -7 3 -16 -1
-19 -9z"/>
<path d="M195 179 c-4 -6 -4 -13 -1 -16 3 -4 -3 -17 -15 -29 -12 -13 -19 -30
-16 -38 4 -9 2 -16 -4 -16 -6 0 -9 -7 -5 -15 3 -8 0 -14 -7 -12 -7 1 -13 -10
-15 -26 l-3 -27 60 2 c33 1 57 6 55 10 -3 4 0 8 5 8 6 0 11 -4 11 -10 0 -13
137 -13 144 -1 4 5 0 11 -6 14 -11 3 38 40 66 50 5 2 4 12 -2 23 -8 16 -18 19
-51 16 -23 -2 -44 -8 -47 -13 -8 -14 -40 -11 -53 5 -7 8 -21 13 -32 11 -15 -3
-19 0 -17 13 2 9 -7 27 -20 40 -26 24 -38 27 -47 11z"/>
</g>
</svg>
